<?xml version="1.0" encoding="UTF-8" standalone="no"?>
<!DOCTYPE svg PUBLIC "-//W3C//DTD SVG 1.1//EN" "http://www.w3.org/Graphics/SVG/1.1/DTD/svg11.dtd">
<svg width="100%" height="100%" viewBox="0 0 223 50" version="1.1" xmlns="http://www.w3.org/2000/svg" xmlns:xlink="http://www.w3.org/1999/xlink" xml:space="preserve" xmlns:serif="http://www.serif.com/" style="fill-rule:evenodd;clip-rule:evenodd;stroke-linejoin:round;stroke-miterlimit:2;">
    <g id="Plan-de-travail1" serif:id="Plan de travail1" transform="matrix(0.741867,0,0,0.164469,0,0)">
        <rect x="0" y="0" width="300" height="300" style="fill:none;"/>
        <clipPath id="_clip1">
            <rect x="0" y="0" width="300" height="300"/>
        </clipPath>
        <g clip-path="url(#_clip1)">
            <g transform="matrix(1.34795,0,0,6.08018,-52.255,-763.034)">
                <rect x="0" y="0" width="300" height="300" style="fill:none;"/>
            </g>
            <g id="dff727ea-c914-4c1d-9325-86d683f65698" transform="matrix(2.43772,0,0,10.9958,96.5885,-14.5643)">
                <path d="M1.54,14.59C1.453,14.363 1.41,14.05 1.41,13.65C1.41,13.25 1.547,12.063 1.82,10.09C2.093,8.123 2.23,6.543 2.23,5.35C2.23,5.07 2.21,4.687 2.17,4.2C2.877,4.24 3.32,4.407 3.5,4.7C3.593,4.873 3.653,5.037 3.68,5.19C3.707,5.343 3.72,5.587 3.72,5.92C3.72,6.247 3.57,7.49 3.27,9.65C2.963,11.81 2.807,13.35 2.8,14.27C2.847,14.257 2.93,14.25 3.05,14.25C5.07,14.25 6.573,14.11 7.56,13.83C7.493,14.37 7.31,14.79 7.01,15.09C6.703,15.39 6.323,15.54 5.87,15.54C5.737,15.54 5.333,15.51 4.66,15.45C3.98,15.39 3.323,15.36 2.69,15.36C2.057,15.36 1.42,15.42 0.78,15.54C0.907,15.127 1.16,14.81 1.54,14.59ZM10.75,9.95C10.483,10.417 10.277,10.897 10.13,11.39C9.983,11.877 9.91,12.347 9.91,12.8C9.91,13.247 10.01,13.627 10.21,13.94C10.41,14.253 10.697,14.41 11.07,14.41C11.597,14.41 12.087,14.123 12.54,13.55C13,12.97 13.353,12.273 13.6,11.46C13.847,10.64 13.97,9.883 13.97,9.19C13.97,8.497 13.943,7.927 13.89,7.48C14.11,7.46 14.25,7.45 14.31,7.45C15.103,7.45 15.5,7.857 15.5,8.67C15.5,8.843 15.387,9.563 15.16,10.83C14.94,12.097 14.83,13.11 14.83,13.87C14.83,14.63 14.973,15.303 15.26,15.89C14.673,15.77 14.247,15.51 13.98,15.11C13.713,14.717 13.58,14.147 13.58,13.4C13.58,13.267 13.6,13.013 13.64,12.64C13.387,13.527 12.943,14.24 12.31,14.78C11.67,15.327 11.047,15.6 10.44,15.6C9.827,15.6 9.333,15.367 8.96,14.9C8.587,14.44 8.4,13.803 8.4,12.99C8.4,12.17 8.553,11.37 8.86,10.59C9.16,9.81 9.617,9.137 10.23,8.57C10.837,7.997 11.52,7.71 12.28,7.71C12.607,7.71 12.967,7.777 13.36,7.91C12.807,8.05 12.3,8.307 11.84,8.68C11.387,9.053 11.023,9.477 10.75,9.95ZM24.84,5.7L24.85,5.87C24.85,6.223 24.717,7.383 24.45,9.35C24.183,11.31 24.05,12.95 24.05,14.27C24.05,14.857 24.08,15.313 24.14,15.64C23.913,15.66 23.79,15.67 23.77,15.67C23.35,15.67 23.037,15.573 22.83,15.38C22.63,15.187 22.53,14.873 22.53,14.44C22.53,14.007 22.687,12.68 23,10.46C23.307,8.247 23.46,6.667 23.46,5.72C23.46,4.773 23.397,4.153 23.27,3.86C23.57,3.9 23.847,4.017 24.1,4.21C24.36,4.397 24.553,4.65 24.68,4.97C25.393,4.59 26.187,4.4 27.06,4.4C27.927,4.4 28.61,4.667 29.11,5.2C29.61,5.74 29.86,6.4 29.86,7.18C29.86,8.18 29.497,9.08 28.77,9.88C28.043,10.673 27.063,11.07 25.83,11.07C25.55,11.07 25.293,11.053 25.06,11.02L25.02,10.57C25.647,10.57 26.193,10.477 26.66,10.29C27.127,10.103 27.48,9.857 27.72,9.55C28.193,8.95 28.43,8.25 28.43,7.45C28.43,6.87 28.247,6.387 27.88,6C27.513,5.613 26.98,5.42 26.28,5.42C25.86,5.42 25.38,5.513 24.84,5.7ZM32.96,9.95C32.687,10.417 32.477,10.897 32.33,11.39C32.19,11.877 32.12,12.347 32.12,12.8C32.12,13.247 32.22,13.627 32.42,13.94C32.62,14.253 32.907,14.41 33.28,14.41C33.8,14.41 34.29,14.123 34.75,13.55C35.203,12.97 35.553,12.273 35.8,11.46C36.053,10.64 36.18,9.883 36.18,9.19C36.18,8.497 36.15,7.927 36.09,7.48C36.317,7.46 36.457,7.45 36.51,7.45C37.303,7.45 37.7,7.857 37.7,8.67C37.7,8.843 37.59,9.563 37.37,10.83C37.143,12.097 37.03,13.11 37.03,13.87C37.03,14.63 37.173,15.303 37.46,15.89C36.873,15.77 36.447,15.51 36.18,15.11C35.913,14.717 35.78,14.147 35.78,13.4C35.78,13.267 35.8,13.013 35.84,12.64C35.587,13.527 35.143,14.24 34.51,14.78C33.877,15.327 33.253,15.6 32.64,15.6C32.027,15.6 31.533,15.367 31.16,14.9C30.787,14.44 30.6,13.803 30.6,12.99C30.6,12.17 30.753,11.37 31.06,10.59C31.36,9.81 31.817,9.137 32.43,8.57C33.043,7.997 33.727,7.71 34.48,7.71C34.807,7.71 35.167,7.777 35.56,7.91C35.007,8.05 34.503,8.307 34.05,8.68C33.59,9.053 33.227,9.477 32.96,9.95ZM46.35,9.34C46.35,9.767 46.26,10.523 46.08,11.61C45.9,12.697 45.81,13.49 45.81,13.99C45.81,14.483 45.87,14.84 45.99,15.06C46.11,15.28 46.317,15.467 46.61,15.62C46.483,15.633 46.31,15.64 46.09,15.64C45.457,15.64 45.007,15.52 44.74,15.28C44.473,15.04 44.34,14.613 44.34,14C44.34,13.653 44.433,12.957 44.62,11.91C44.807,10.857 44.9,10.083 44.9,9.59C44.9,8.977 44.713,8.67 44.34,8.67C43.74,8.67 43.12,9.197 42.48,10.25C41.84,11.303 41.52,12.573 41.52,14.06C41.52,14.647 41.55,15.103 41.61,15.43C41.363,15.45 41.217,15.46 41.17,15.46C40.35,15.46 39.94,15.057 39.94,14.25C39.94,14.063 40.04,13.347 40.24,12.1C40.433,10.847 40.53,9.85 40.53,9.11C40.53,8.363 40.45,7.68 40.29,7.06C40.843,7.273 41.23,7.577 41.45,7.97C41.67,8.37 41.78,8.823 41.78,9.33C41.78,9.837 41.723,10.427 41.61,11.1C41.917,10.047 42.4,9.16 43.06,8.44C43.713,7.713 44.327,7.35 44.9,7.35C45.867,7.35 46.35,8.013 46.35,9.34ZM53.06,7.76C53.06,8.147 52.987,8.417 52.84,8.57C52.687,8.717 52.467,8.79 52.18,8.79L51.17,8.79C51.13,9.037 51.033,9.617 50.88,10.53C50.56,12.263 50.4,13.573 50.4,14.46C50.4,15.347 50.467,15.937 50.6,16.23C50.067,16.03 49.687,15.733 49.46,15.34C49.24,14.94 49.13,14.457 49.13,13.89C49.13,13.317 49.163,12.777 49.23,12.27C49.303,11.763 49.403,11.17 49.53,10.49C49.663,9.803 49.757,9.257 49.81,8.85C49.277,8.923 48.753,9.073 48.24,9.3C48.227,9.147 48.22,9.01 48.22,8.89C48.22,8.443 48.367,8.143 48.66,7.99C48.96,7.837 49.39,7.76 49.95,7.76C50.017,7.067 50.05,6.55 50.05,6.21C50.05,5.87 50.047,5.597 50.04,5.39L50.04,4.93C50.467,4.997 50.797,5.187 51.03,5.5C51.263,5.807 51.38,6.233 51.38,6.78C51.38,7.06 51.357,7.4 51.31,7.8C52.123,7.8 52.697,7.663 53.03,7.39C53.05,7.523 53.06,7.647 53.06,7.76ZM55.69,11.1C55.997,10.047 56.47,9.16 57.11,8.44C57.75,7.713 58.35,7.35 58.91,7.35C59.47,7.35 59.867,7.52 60.1,7.86C60.333,8.2 60.45,8.663 60.45,9.25C60.45,9.83 60.36,10.647 60.18,11.7C60,12.76 59.91,13.53 59.91,14.01C59.91,14.49 59.97,14.84 60.09,15.06C60.21,15.28 60.413,15.467 60.7,15.62C60.58,15.633 60.41,15.64 60.19,15.64C59.59,15.64 59.147,15.517 58.86,15.27C58.58,15.023 58.44,14.6 58.44,14C58.44,13.653 58.533,12.957 58.72,11.91C58.907,10.857 59,10.083 59,9.59C59,8.977 58.783,8.67 58.35,8.67C58.097,8.67 57.817,8.803 57.51,9.07C57.203,9.33 56.907,9.687 56.62,10.14C56.34,10.593 56.103,11.17 55.91,11.87C55.717,12.563 55.62,13.247 55.62,13.92C55.62,14.6 55.65,15.103 55.71,15.43C55.483,15.45 55.357,15.46 55.33,15.46C54.89,15.46 54.567,15.367 54.36,15.18C54.147,14.993 54.04,14.7 54.04,14.3C54.04,13.907 54.123,13.143 54.29,12.01C54.783,8.537 55.03,5.9 55.03,4.1C55.03,3.287 54.977,2.74 54.87,2.46C55.41,2.66 55.79,2.95 56.01,3.33C56.23,3.717 56.34,4.243 56.34,4.91C56.34,5.377 56.247,6.357 56.06,7.85C55.88,9.343 55.757,10.427 55.69,11.1ZM66.28,8.08C65.72,8.08 65.247,8.4 64.86,9.04C64.467,9.687 64.207,10.443 64.08,11.31L64.47,11.31C64.963,11.31 65.393,11.24 65.76,11.1C66.12,10.96 66.4,10.78 66.6,10.56C66.973,10.127 67.16,9.64 67.16,9.1C67.16,8.793 67.087,8.547 66.94,8.36C66.793,8.173 66.573,8.08 66.28,8.08ZM68.25,13.75C67.823,14.45 67.353,14.94 66.84,15.22C66.327,15.5 65.73,15.64 65.05,15.64C64.377,15.64 63.787,15.34 63.28,14.74C62.773,14.147 62.52,13.307 62.52,12.22C62.52,10.987 62.853,9.887 63.52,8.92C63.847,8.453 64.273,8.073 64.8,7.78C65.327,7.493 65.907,7.35 66.54,7.35C67.94,7.35 68.64,8.027 68.64,9.38C68.64,10.193 68.327,10.83 67.7,11.29C67.067,11.75 66.337,11.98 65.51,11.98C64.957,11.98 64.46,11.93 64.02,11.83C64.013,11.923 64.01,12.067 64.01,12.26C64.01,13.913 64.5,14.74 65.48,14.74C66.4,14.74 67.15,14.283 67.73,13.37C68.077,13.417 68.25,13.543 68.25,13.75ZM67.97,6.3C67.963,6.4 67.913,6.497 67.82,6.59C67.733,6.677 67.633,6.733 67.52,6.76C67.187,6.34 66.757,5.927 66.23,5.52C65.703,5.107 65.167,4.817 64.62,4.65C64.64,4.163 64.867,3.78 65.3,3.5C65.793,3.693 66.303,4.08 66.83,4.66C67.357,5.233 67.737,5.78 67.97,6.3ZM72.1,10.88C72.433,9.667 72.837,8.773 73.31,8.2C73.783,7.627 74.223,7.34 74.63,7.34C75.037,7.34 75.34,7.49 75.54,7.79C75.747,8.097 75.85,8.483 75.85,8.95C75.85,9.417 75.73,9.82 75.49,10.16C75.243,10.5 74.887,10.67 74.42,10.67C74.273,10.67 74.157,10.66 74.07,10.64C74.39,10.18 74.55,9.713 74.55,9.24C74.55,8.907 74.413,8.74 74.14,8.74C73.927,8.74 73.7,8.863 73.46,9.11C73.213,9.363 72.98,9.713 72.76,10.16C72.533,10.613 72.347,11.197 72.2,11.91C72.047,12.63 71.97,13.407 71.97,14.24C71.97,14.333 71.993,14.73 72.04,15.43C71.8,15.45 71.66,15.46 71.62,15.46C70.8,15.46 70.39,15.057 70.39,14.25C70.39,14.063 70.49,13.347 70.69,12.1C70.883,10.847 70.98,9.85 70.98,9.11C70.98,8.363 70.9,7.68 70.74,7.06C71.293,7.273 71.68,7.577 71.9,7.97C72.12,8.37 72.23,8.833 72.23,9.36C72.23,9.887 72.187,10.393 72.1,10.88ZM80.35,8.08C79.79,8.08 79.313,8.4 78.92,9.04C78.533,9.687 78.277,10.443 78.15,11.31L78.54,11.31C79.033,11.31 79.463,11.24 79.83,11.1C80.19,10.96 80.47,10.78 80.67,10.56C81.043,10.127 81.23,9.64 81.23,9.1C81.23,8.793 81.157,8.547 81.01,8.36C80.863,8.173 80.643,8.08 80.35,8.08ZM82.32,13.75C81.893,14.45 81.423,14.94 80.91,15.22C80.397,15.5 79.8,15.64 79.12,15.64C78.447,15.64 77.857,15.34 77.35,14.74C76.843,14.147 76.59,13.307 76.59,12.22C76.59,10.987 76.923,9.887 77.59,8.92C77.917,8.453 78.343,8.073 78.87,7.78C79.397,7.493 79.977,7.35 80.61,7.35C82.01,7.35 82.71,8.027 82.71,9.38C82.71,10.193 82.397,10.83 81.77,11.29C81.137,11.75 80.407,11.98 79.58,11.98C79.027,11.98 78.53,11.93 78.09,11.83C78.083,11.923 78.08,12.067 78.08,12.26C78.08,13.913 78.57,14.74 79.55,14.74C80.47,14.74 81.22,14.283 81.8,13.37C82.147,13.417 82.32,13.543 82.32,13.75Z" style="fill-rule:nonzero;"/>
            </g>
            <g id="dfe8044c-91b6-4966-9038-a63642c35301" transform="matrix(0.86471,0,0,3.90044,-1.94188,-46.2043)">
                <path d="M44,46.07L44,46C43.24,44.658 41.971,43.677 40.48,43.28L40.34,43.28C39.526,43.032 38.688,42.875 37.84,42.81C35.547,42.503 33.351,41.69 31.41,40.43C31.293,40.36 31.16,40.323 31.024,40.323C30.613,40.323 30.274,40.662 30.274,41.073C30.274,41.307 30.384,41.528 30.57,41.67C31.211,42.084 31.88,42.455 32.57,42.78C32.57,42.88 32.48,42.98 32.45,43.09C31.542,46.287 33.41,49.668 36.6,50.6C37.179,50.766 37.778,50.85 38.38,50.85C40.211,50.86 41.946,50.016 43.07,48.57C43.157,49.573 43.096,50.584 42.89,51.57C42.853,51.66 42.834,51.757 42.834,51.854C42.834,52.181 43.048,52.472 43.36,52.57C43.439,52.583 43.521,52.583 43.6,52.57C43.921,52.57 44.207,52.364 44.31,52.06C44.631,50.718 44.708,49.329 44.54,47.96C44.488,47.3 44.305,46.657 44,46.07ZM39.53,44.58C39.566,44.752 39.566,44.928 39.53,45.1C39.371,45.665 38.852,46.059 38.265,46.059C37.544,46.059 36.951,45.466 36.951,44.745C36.951,44.625 36.968,44.506 37,44.39C37.026,44.331 37.056,44.274 37.09,44.22L37.69,44.29C38.318,44.336 38.94,44.436 39.55,44.59L39.53,44.58ZM40.47,48.83C39.396,49.383 38.147,49.498 36.99,49.15C34.576,48.453 33.16,45.896 33.85,43.48L33.85,43.36C34.406,43.575 34.973,43.759 35.55,43.91L35.55,43.97C35.463,44.244 35.419,44.53 35.419,44.818C35.419,46.354 36.683,47.618 38.219,47.618C39.633,47.618 40.837,46.545 41,45.14C41.6,45.444 42.11,45.899 42.48,46.46C42.136,47.471 41.426,48.317 40.49,48.83L40.47,48.83ZM67.57,43.07C67.57,42.96 67.49,42.87 67.45,42.76C68.14,42.435 68.809,42.064 69.45,41.65C69.636,41.508 69.746,41.287 69.746,41.053C69.746,40.642 69.407,40.303 68.996,40.303C68.86,40.303 68.727,40.34 68.61,40.41C66.669,41.67 64.473,42.483 62.18,42.79C61.325,42.853 60.48,43.011 59.66,43.26L59.54,43.26C58.038,43.656 56.76,44.646 56,46L56,46.05C55.687,46.656 55.504,47.32 55.46,48C55.292,49.369 55.369,50.758 55.69,52.1C55.793,52.404 56.079,52.61 56.4,52.61C56.404,52.61 56.409,52.61 56.413,52.61C56.824,52.61 57.163,52.272 57.163,51.86C57.163,51.775 57.148,51.69 57.12,51.61C56.91,50.625 56.846,49.614 56.93,48.61C58.054,50.056 59.789,50.9 61.62,50.89C62.222,50.89 62.821,50.806 63.4,50.64C66.006,49.895 67.816,47.495 67.816,44.784C67.816,44.204 67.733,43.627 67.57,43.07ZM62.27,44.29L62.87,44.22C62.904,44.274 62.934,44.331 62.96,44.39C63.152,45.073 62.751,45.793 62.07,45.99C61.948,46.028 61.822,46.047 61.695,46.047C60.998,46.047 60.425,45.473 60.425,44.777C60.425,44.711 60.43,44.645 60.44,44.58C61.044,44.431 61.66,44.334 62.28,44.29L62.27,44.29ZM63,49.15C61.843,49.498 60.594,49.383 59.52,48.83C58.578,48.316 57.864,47.466 57.52,46.45C57.891,45.892 58.401,45.441 59,45.14C59.015,45.265 59.039,45.388 59.07,45.51C59.423,46.696 60.523,47.513 61.76,47.51C63.274,47.478 64.502,46.225 64.502,44.711C64.502,44.471 64.471,44.232 64.41,44L64.41,43.94C64.987,43.789 65.554,43.605 66.11,43.39L66.11,43.51C66.783,45.908 65.388,48.44 63,49.15Z" style="fill:rgb(29,29,27);fill-rule:nonzero;"/>
                <path d="M46.33,44.89C46.17,42.64 44.33,41.21 41.18,40.97C39.516,40.753 37.919,40.176 36.5,39.28C36.377,39.198 36.233,39.155 36.085,39.155C35.673,39.155 35.335,39.493 35.335,39.905C35.335,40.156 35.461,40.391 35.67,40.53C37.303,41.57 39.148,42.229 41.07,42.46C42.42,42.56 44.7,43.03 44.84,44.99C44.866,45.382 45.197,45.691 45.59,45.69L45.64,45.69C46.048,45.658 46.359,45.298 46.33,44.89ZM59.31,42.46C61.232,42.229 63.077,41.57 64.71,40.53C64.919,40.391 65.045,40.156 65.045,39.905C65.045,39.493 64.707,39.155 64.295,39.155C64.147,39.155 64.003,39.198 63.88,39.28C62.46,40.188 60.86,40.775 59.19,41C56.08,41.24 54.19,42.67 54.04,44.92C54.039,44.937 54.038,44.954 54.038,44.972C54.038,45.365 54.348,45.695 54.74,45.72L54.79,45.72C55.183,45.721 55.514,45.412 55.54,45.02C55.68,43 58,42.57 59.31,42.46ZM34.64,37.25C34.782,37.434 35.002,37.542 35.234,37.542C35.645,37.542 35.984,37.203 35.984,36.792C35.984,36.611 35.919,36.436 35.8,36.3L32.61,32.38C32.468,32.196 32.248,32.088 32.016,32.088C31.605,32.088 31.266,32.427 31.266,32.838C31.266,33.019 31.331,33.194 31.45,33.33L34.64,37.25ZM38,35.08C38.111,35.369 38.391,35.56 38.7,35.56C39.109,35.556 39.443,35.219 39.443,34.81C39.443,34.725 39.428,34.64 39.4,34.56L37.99,30.88C37.879,30.591 37.599,30.4 37.29,30.4C36.878,30.4 36.54,30.738 36.54,31.15C36.54,31.242 36.557,31.334 36.59,31.42L38,35.08ZM42,35.19C42.39,35.191 42.719,34.888 42.75,34.5L43,31.32C43.002,31.299 43.003,31.279 43.003,31.258C43.003,30.868 42.699,30.54 42.31,30.51C42.286,30.508 42.262,30.507 42.239,30.507C41.85,30.507 41.524,30.812 41.5,31.2L41.25,34.39C41.249,34.407 41.248,34.423 41.248,34.44C41.248,34.851 41.587,35.19 41.998,35.19C41.999,35.19 41.999,35.19 42,35.19Z" style="fill:rgb(29,29,27);fill-rule:nonzero;"/>
                <path d="M95.31,61C91.41,59.76 82.23,59.87 74.77,60.21C79.77,53.9 79.77,47.8 78.88,44.93C78.2,42.78 77.15,37.36 78.49,35.25C78.738,34.821 79.177,34.534 79.67,34.48C81.43,34.25 81.75,32.42 82,30.96C82.068,30.437 82.185,29.921 82.35,29.42C82.652,28.88 83.068,28.412 83.57,28.05C84.971,26.932 86.065,25.476 86.75,23.82C88.34,19.91 86.21,17.98 86.12,17.9C86.037,17.837 85.942,17.793 85.84,17.77L85.7,17.77C84.065,17.343 82.325,17.607 80.89,18.5C80.21,18.83 79.37,19.23 78.13,19.75C75.467,21.091 72.221,20.556 70.13,18.43C65.63,14.11 62.46,12.86 50.05,12.86C37.64,12.86 34.51,14.12 30.05,18.43C27.959,20.556 24.713,21.091 22.05,19.75C21.118,19.36 20.198,18.944 19.29,18.5C17.855,17.607 16.115,17.343 14.48,17.77L14.34,17.77C14.238,17.793 14.143,17.837 14.06,17.9C13.97,17.98 11.84,19.9 13.43,23.82C14.115,25.476 15.209,26.932 16.61,28.05C17.111,28.413 17.528,28.88 17.83,29.42C17.936,29.94 17.993,30.469 18,31C18.25,32.47 18.56,34.29 20.33,34.52C20.823,34.574 21.262,34.861 21.51,35.29C22.85,37.4 21.8,42.82 21.12,44.97C20.21,47.84 20.25,53.97 25.23,60.25C17.77,59.91 8.59,59.8 4.69,61.04C4.38,61.14 4.169,61.43 4.169,61.755C4.169,62.167 4.508,62.506 4.92,62.506C4.998,62.506 5.076,62.494 5.15,62.47C9.24,61.17 20.15,61.47 26.33,61.81L26.58,61.81L27.23,62.5C19.55,62.61 14.34,63.14 11.73,64.08C11.423,64.181 11.215,64.469 11.215,64.792C11.215,65.204 11.554,65.542 11.965,65.542C12.059,65.542 12.152,65.525 12.24,65.49C14.82,64.56 20.54,64.04 28.8,63.98C29.15,64.28 29.51,64.57 29.87,64.86C23.4,65.22 12.87,66.07 8.87,67.86C8.626,67.99 8.472,68.245 8.472,68.522C8.472,68.933 8.811,69.272 9.222,69.272C9.307,69.272 9.39,69.258 9.47,69.23C13.64,67.4 25.65,66.59 31.69,66.28L32.69,67L32.79,67.07C26.5,67.68 22.2,68.47 20,69.43C19.756,69.56 19.602,69.815 19.602,70.092C19.602,70.503 19.941,70.842 20.352,70.842C20.437,70.842 20.52,70.828 20.6,70.8C22.67,69.89 27.05,69.11 33.32,68.52C33.291,70.369 33.52,72.214 34,74C35.63,78.32 37.86,79.38 40.46,79.6C40.834,80.303 41.352,80.92 41.98,81.41C40.582,82.676 39.432,84.192 38.59,85.88C38.557,85.966 38.54,86.058 38.54,86.15C38.54,86.562 38.878,86.9 39.29,86.9C39.599,86.9 39.879,86.709 39.99,86.42C40.26,85.72 41.07,84.42 43.28,82.23C43.919,82.555 44.589,82.817 45.28,83.01C44.795,84.098 44.484,85.255 44.36,86.44C44.359,86.454 44.359,86.467 44.359,86.481C44.359,86.878 44.674,87.209 45.07,87.23C45.467,87.231 45.799,86.916 45.82,86.52C45.952,85.421 46.259,84.351 46.73,83.35C48.895,83.711 51.105,83.711 53.27,83.35C53.738,84.352 54.046,85.422 54.18,86.52C54.201,86.916 54.533,87.231 54.93,87.23C55.326,87.209 55.641,86.878 55.641,86.481C55.641,86.467 55.641,86.454 55.64,86.44C55.526,85.254 55.226,84.093 54.75,83C55.441,82.807 56.111,82.545 56.75,82.22C58.96,84.41 59.75,85.71 60.04,86.41C60.151,86.699 60.431,86.89 60.74,86.89C61.152,86.89 61.49,86.552 61.49,86.14C61.49,86.048 61.473,85.956 61.44,85.87C60.598,84.182 59.448,82.666 58.05,81.4C58.678,80.91 59.196,80.293 59.57,79.59C62.17,79.37 64.4,78.32 66.02,74C66.487,72.222 66.706,70.388 66.67,68.55C72.94,69.14 77.33,69.92 79.39,70.83C79.498,70.888 79.62,70.918 79.742,70.918C80.154,70.918 80.492,70.579 80.492,70.168C80.492,69.85 80.29,69.565 79.99,69.46C77.77,68.46 73.39,67.69 66.99,67.08L67.79,66.52L68.1,66.3C74.1,66.6 86.3,67.41 90.52,69.3C90.6,69.328 90.683,69.342 90.768,69.342C91.179,69.342 91.518,69.003 91.518,68.592C91.518,68.315 91.364,68.06 91.12,67.93C87.06,66.15 76.51,65.31 70.05,64.93C70.43,64.643 70.8,64.35 71.16,64.05C79.44,64.1 85.16,64.62 87.75,65.56C87.826,65.585 87.905,65.598 87.985,65.598C88.396,65.598 88.735,65.259 88.735,64.848C88.735,64.54 88.546,64.263 88.26,64.15C85.66,63.21 80.45,62.68 72.76,62.57L73.41,61.88L73.66,61.88C79.81,61.57 90.75,61.24 94.84,62.54C94.916,62.563 94.995,62.575 95.075,62.575C95.517,62.575 95.88,62.212 95.88,61.77C95.88,61.417 95.648,61.103 95.31,61ZM53.31,79.91C53.176,79.678 52.928,79.535 52.66,79.535C52.248,79.535 51.91,79.873 51.91,80.285C51.91,80.417 51.944,80.546 52.01,80.66C52.17,80.93 52.4,81.36 52.65,81.86C50.919,82.112 49.161,82.112 47.43,81.86C47.78,81.15 48.06,80.67 48.07,80.66C48.136,80.546 48.17,80.417 48.17,80.285C48.17,79.873 47.832,79.535 47.42,79.535C47.152,79.535 46.904,79.678 46.77,79.91C46.77,79.97 46.35,80.64 45.9,81.57C44.534,81.276 43.287,80.579 42.32,79.57L44.75,79.57C46.939,79.561 48.956,78.355 50,76.43C51.053,78.363 53.089,79.568 55.29,79.56L57.72,79.56C56.753,80.569 55.506,81.266 54.14,81.56C53.69,80.66 53.31,80 53.27,79.93L53.31,79.91ZM70.41,62.65L70.33,62.71C69.49,63.41 68.56,64.09 67.65,64.71L66.87,64.71C67,63 67.32,61.46 67.94,61C68.124,60.856 68.232,60.634 68.232,60.4C68.232,59.982 67.888,59.638 67.47,59.638C67.3,59.638 67.134,59.695 67,59.8C66,60.63 65.56,62.44 65.37,64.63L64.76,64.63C64.747,64.629 64.733,64.629 64.72,64.629C64.32,64.629 63.99,64.958 63.99,65.359L63.99,65.38C63.99,65.784 64.316,66.119 64.72,66.13L65.28,66.13L65.28,66.87L65.1,66.87C64.693,66.841 64.332,67.144 64.29,67.55C64.256,67.958 64.562,68.323 64.97,68.36L65.18,68.36C65.209,70.06 65.021,71.757 64.62,73.41C63.21,77.16 61.52,77.95 59.07,78.07L55.29,78.07C52.833,78.065 50.803,76.066 50.76,73.61C51.108,73.281 51.498,72.998 51.92,72.77C52.92,72.13 54.39,71.25 53.85,69.98C53.66,69.54 53.79,69.33 55.51,68.16L56.14,67.73C56.886,67.33 57.377,66.574 57.44,65.73C57.393,65.077 57.04,64.484 56.49,64.13C56.154,63.925 55.709,64.023 55.49,64.35C55.293,64.686 55.385,65.122 55.7,65.35C55.78,65.41 55.96,65.58 55.97,65.72C55.98,65.86 55.8,66.13 55.31,66.47L54.69,66.9C53.06,68 51.78,68.9 52.49,70.47C52.41,70.72 51.6,71.21 51.16,71.47C50.767,71.701 50.389,71.958 50.03,72.24C49.671,71.958 49.293,71.701 48.9,71.47C48.424,71.209 47.978,70.897 47.57,70.54C48.28,68.87 46.99,68 45.37,66.89L44.75,66.46C44.27,66.12 44.09,65.85 44.09,65.71C44.09,65.57 44.27,65.4 44.35,65.34C44.546,65.199 44.662,64.972 44.662,64.731C44.662,64.32 44.323,63.981 43.912,63.981C43.781,63.981 43.653,64.015 43.54,64.08C42.99,64.434 42.637,65.027 42.59,65.68C42.653,66.524 43.144,67.28 43.89,67.68L44.52,68.11C46.25,69.28 46.37,69.49 46.18,69.93C45.64,71.21 47.07,72.08 48.11,72.72C48.513,72.951 48.901,73.208 49.27,73.49C49.259,75.973 47.213,78.01 44.73,78.01L43.17,78.01C39.45,78.1 37.17,78.15 35.39,73.35C34.99,71.697 34.802,70 34.83,68.3L35.04,68.3C35.427,68.266 35.728,67.939 35.728,67.55C35.728,67.137 35.388,66.797 34.975,66.797C34.953,66.797 34.932,66.798 34.91,66.8L34.77,66.8L34.77,66.06L35.33,66.06C35.741,66.06 36.08,65.721 36.08,65.31C36.08,64.899 35.741,64.56 35.33,64.56L34.72,64.56C34.53,62.37 34.14,60.56 33.09,59.73C32.944,59.612 32.762,59.547 32.575,59.547C32.126,59.547 31.757,59.916 31.757,60.365C31.757,60.611 31.869,60.845 32.06,61C32.68,61.49 32.97,63 33.12,64.71L32.17,64.71C31.32,64.07 30.47,63.4 29.69,62.71C29.647,62.657 29.596,62.609 29.54,62.57C29.28,62.34 29.02,62.11 28.78,61.88L31.11,62.03L31.17,62.03C31.18,62.03 31.19,62.031 31.2,62.031C31.612,62.031 31.951,61.692 31.951,61.28C31.951,60.88 31.63,60.546 31.23,60.53C30.83,60.514 29.66,60.41 27.23,60.28C21.79,54.09 21.65,48.08 22.51,45.36C22.51,45.28 24.84,37.74 22.74,34.43C22.258,33.649 21.45,33.123 20.54,33C19.92,32.92 19.72,32 19.54,30.71C19.455,30.084 19.307,29.467 19.1,28.87C18.721,28.099 18.162,27.43 17.47,26.92C16.241,25.958 15.283,24.694 14.69,23.25C13.69,20.89 14.46,19.59 14.79,19.17C15.521,19.106 16.253,19.297 16.86,19.71C16.93,19.77 24.38,25.23 27.65,25.23L28,25.23C25,27.38 23.24,30.13 23.24,32.82C23.24,33.231 23.579,33.57 23.99,33.57C24.401,33.57 24.74,33.231 24.74,32.82C24.74,30.01 27.34,26.93 31.37,24.96C32.938,24.726 34.454,24.222 35.85,23.47C36.095,23.34 36.249,23.085 36.249,22.807C36.249,22.396 35.91,22.057 35.499,22.057C35.366,22.057 35.235,22.093 35.12,22.16C32.774,23.317 30.173,23.861 27.56,23.74C26.31,23.74 23.92,22.53 21.7,21.19C24.85,22.606 28.57,21.914 31,19.46C35,15.64 37.49,14.31 50,14.31C62.51,14.31 65,15.65 69,19.46C70.521,21.01 72.598,21.892 74.77,21.91C75.948,21.893 77.114,21.662 78.21,21.23C76,22.56 73.61,23.76 72.37,23.76C69.757,23.881 67.156,23.337 64.81,22.18C64.702,22.123 64.581,22.093 64.459,22.093C64.047,22.093 63.709,22.431 63.709,22.843C63.709,23.109 63.85,23.356 64.08,23.49C65.484,24.252 67.01,24.763 68.59,25C72.59,27 75.22,30 75.22,32.86C75.22,33.271 75.559,33.61 75.97,33.61C76.381,33.61 76.72,33.271 76.72,32.86C76.72,30.16 74.95,27.41 71.96,25.27L72.4,25.27C75.67,25.27 83.12,19.81 83.19,19.75C83.794,19.339 84.522,19.149 85.25,19.21C85.58,19.64 86.3,20.94 85.35,23.29C84.757,24.734 83.799,25.998 82.57,26.96C81.878,27.47 81.319,28.139 80.94,28.91C80.732,29.507 80.585,30.124 80.5,30.75C80.27,32.08 80.08,32.96 79.5,33.04C78.568,33.154 77.738,33.688 77.25,34.49C75.14,37.8 77.45,45.35 77.48,45.42C78.35,48.15 78.2,54.16 72.76,60.34C70.37,60.47 68.76,60.59 68.76,60.59C68.36,60.606 68.039,60.94 68.039,61.34C68.039,61.752 68.378,62.091 68.79,62.091C68.8,62.091 68.81,62.09 68.82,62.09L68.88,62.09L71.21,61.94C71,62.17 70.69,62.41 70.41,62.65Z" style="fill:rgb(29,29,27);fill-rule:nonzero;"/>
                <path d="M64.77,37.53C64.995,37.529 65.209,37.426 65.35,37.25L68.54,33.33C68.659,33.194 68.724,33.019 68.724,32.838C68.724,32.427 68.385,32.088 67.974,32.088C67.742,32.088 67.522,32.196 67.38,32.38L64.19,36.3C64.083,36.433 64.024,36.599 64.024,36.77C64.024,37.18 64.36,37.518 64.77,37.52L64.77,37.53ZM61.07,35.51C61.159,35.527 61.251,35.527 61.34,35.51C61.649,35.51 61.929,35.319 62.04,35.03L63.45,31.35C63.483,31.264 63.5,31.172 63.5,31.08C63.5,30.668 63.162,30.33 62.75,30.33C62.441,30.33 62.161,30.521 62.05,30.81L60.64,34.49C60.595,34.588 60.571,34.695 60.571,34.803C60.571,35.12 60.772,35.404 61.07,35.51ZM58,35.2C58.389,35.17 58.693,34.842 58.693,34.452C58.693,34.431 58.692,34.411 58.69,34.39L58.44,31.2C58.409,30.811 58.08,30.508 57.69,30.508C57.277,30.508 56.938,30.847 56.938,31.26C56.938,31.28 56.938,31.3 56.94,31.32L57.19,34.51C57.22,34.899 57.548,35.203 57.938,35.203C57.959,35.203 57.979,35.202 58,35.2Z" style="fill:rgb(29,29,27);fill-rule:nonzero;"/>
                <circle cx="38.13" cy="69.84" r="1.05" style="fill:rgb(29,29,27);"/>
                <circle cx="38.48" cy="73.41" r="1.05" style="fill:rgb(29,29,27);"/>
                <circle cx="41.22" cy="75.76" r="1.05" style="fill:rgb(29,29,27);"/>
                <circle cx="42.14" cy="72.11" r="1.05" style="fill:rgb(29,29,27);"/>
                <circle cx="45.06" cy="73.95" r="1.05" style="fill:rgb(29,29,27);"/>
                <circle cx="61.87" cy="69.84" r="1.05" style="fill:rgb(29,29,27);"/>
                <circle cx="61.52" cy="73.41" r="1.05" style="fill:rgb(29,29,27);"/>
                <circle cx="58.78" cy="75.76" r="1.05" style="fill:rgb(29,29,27);"/>
                <circle cx="57.86" cy="72.11" r="1.05" style="fill:rgb(29,29,27);"/>
                <circle cx="54.94" cy="73.95" r="1.05" style="fill:rgb(29,29,27);"/>
                <path d="M53.56,52.5C53.539,52.498 53.519,52.497 53.498,52.497C53.108,52.497 52.78,52.801 52.75,53.19C52.467,55.245 51.497,57.145 50,58.58C48.505,57.141 47.542,55.237 47.27,53.18C47.239,52.791 46.91,52.488 46.52,52.488C46.107,52.488 45.768,52.827 45.768,53.24C45.768,53.26 45.768,53.28 45.77,53.3C46.132,55.965 47.46,58.407 49.5,60.16C49.633,60.269 49.799,60.329 49.97,60.33C50.141,60.329 50.307,60.269 50.44,60.16C52.48,58.407 53.808,55.965 54.17,53.3C54.202,52.918 53.937,52.57 53.56,52.5ZM40.37,55.2C40.02,55.01 39.576,55.129 39.37,55.47C39.17,55.82 38.91,56.19 38.64,56.58C37.3,58.52 35.28,61.46 38.13,64.58C38.265,64.694 38.436,64.756 38.613,64.756C39.024,64.756 39.363,64.417 39.363,64.006C39.363,63.854 39.316,63.705 39.23,63.58C37.34,61.53 38.3,59.76 39.87,57.48C40.16,57.05 40.44,56.65 40.66,56.27C40.737,56.15 40.777,56.01 40.777,55.867C40.777,55.586 40.62,55.328 40.37,55.2ZM60.69,55.47C60.556,55.238 60.308,55.095 60.04,55.095C59.628,55.095 59.29,55.433 59.29,55.845C59.29,55.977 59.324,56.106 59.39,56.22C59.61,56.6 59.89,57 60.18,57.43C61.75,59.71 62.71,61.48 60.82,63.53C60.651,63.672 60.553,63.883 60.553,64.104C60.553,64.515 60.891,64.854 61.303,64.854C61.549,64.854 61.78,64.733 61.92,64.53C64.77,61.44 62.75,58.53 61.41,56.53C61.16,56.19 60.9,55.82 60.69,55.47ZM41.89,65C41.914,64.926 41.926,64.848 41.926,64.77C41.926,64.358 41.587,64.019 41.175,64.019C40.85,64.019 40.56,64.23 40.46,64.54C39.885,66.389 40.685,68.406 42.37,69.36C42.484,69.426 42.613,69.46 42.745,69.46C43.157,69.46 43.495,69.122 43.495,68.71C43.495,68.442 43.352,68.194 43.12,68.06C42.043,67.461 41.527,66.178 41.89,65ZM57.62,69.33C59.305,68.376 60.105,66.359 59.53,64.51C59.43,64.2 59.14,63.989 58.815,63.989C58.403,63.989 58.064,64.328 58.064,64.74C58.064,64.818 58.076,64.896 58.1,64.97C58.447,66.139 57.934,67.403 56.87,68C56.638,68.134 56.495,68.382 56.495,68.65C56.495,69.062 56.833,69.4 57.245,69.4C57.377,69.4 57.506,69.366 57.62,69.3L57.62,69.33ZM52.88,65.15C52.153,65.983 51.1,66.461 49.995,66.461C48.89,66.461 47.837,65.983 47.11,65.15C46.965,64.981 46.753,64.884 46.53,64.884C46.11,64.884 45.764,65.23 45.764,65.65C45.764,65.833 45.83,66.011 45.95,66.15C46.96,67.329 48.437,68.009 49.99,68.009C51.543,68.009 53.02,67.329 54.03,66.15C54.15,66.011 54.216,65.833 54.216,65.65C54.216,65.23 53.87,64.884 53.45,64.884C53.227,64.884 53.015,64.981 52.87,65.15L52.88,65.15ZM30.51,50.52C30.387,50.438 30.243,50.395 30.095,50.395C29.684,50.395 29.345,50.734 29.345,51.145C29.345,51.441 29.52,51.71 29.79,51.83C32.42,53.28 33.56,55.42 33.56,56.19C33.56,56.601 33.899,56.94 34.31,56.94C34.721,56.94 35.06,56.601 35.06,56.19C35.06,54.64 33.36,52.09 30.51,50.52ZM70.59,50.82C70.394,50.469 69.947,50.335 69.59,50.52C66.72,52.09 65,54.64 65,56.2C65,56.611 65.339,56.95 65.75,56.95C66.161,56.95 66.5,56.611 66.5,56.2C66.5,55.43 67.64,53.28 70.27,51.84C70.52,51.712 70.678,51.454 70.678,51.173C70.678,51.05 70.648,50.929 70.59,50.82Z" style="fill:rgb(29,29,27);fill-rule:nonzero;"/>
            </g>
            <g id="_5afeb38c-54b7-45cf-8e8f-6e00f7dcb161" serif:id="5afeb38c-54b7-45cf-8e8f-6e00f7dcb161" transform="matrix(0.668481,0,0,3.01531,98.3094,213.723)">
                <path d="M7.74,13.02L6.58,10.12L2.16,10.12L1.01,13.02L0.27,13.02L3.96,3.78L4.79,3.78L8.48,13.02L7.74,13.02ZM2.42,9.48L6.33,9.48L4.72,5.45L4.38,4.47L4.37,4.47L4.03,5.42L2.42,9.48ZM20.52,8.5L24.32,8.5L24.32,13.02L23.76,13.02L23.73,11.41C23.477,11.97 23.083,12.403 22.55,12.71C22.01,13.01 21.343,13.16 20.55,13.16C19.71,13.16 18.977,12.967 18.35,12.58C17.717,12.193 17.23,11.64 16.89,10.92C16.55,10.2 16.38,9.36 16.38,8.4C16.38,7.44 16.557,6.6 16.91,5.88C17.257,5.16 17.747,4.607 18.38,4.22C19.013,3.833 19.75,3.64 20.59,3.64C21.537,3.64 22.307,3.827 22.9,4.2C23.5,4.573 23.95,5.143 24.25,5.91L23.6,6.24C23.387,5.6 23.027,5.113 22.52,4.78C22.013,4.447 21.37,4.28 20.59,4.28C19.903,4.28 19.297,4.447 18.77,4.78C18.25,5.113 17.847,5.59 17.56,6.21C17.267,6.83 17.12,7.56 17.12,8.4C17.12,9.68 17.427,10.687 18.04,11.42C18.653,12.153 19.5,12.52 20.58,12.52C21.253,12.52 21.823,12.387 22.29,12.12C22.757,11.853 23.1,11.503 23.32,11.07C23.547,10.637 23.66,10.17 23.66,9.67L23.66,9.16L20.52,9.16L20.52,8.5ZM34.5,12.38L40.33,12.38L40.33,13.02L33.8,13.02L33.8,3.78L40.11,3.78L40.11,4.42L34.5,4.42L34.5,7.99L38.93,7.99L38.93,8.65L34.5,8.65L34.5,12.38ZM56.46,3.78L56.46,13.02L55.59,13.02L50.69,5.77L50.01,4.54L49.99,4.54L50.04,5.7L50.04,13.02L49.36,13.02L49.36,3.78L50.25,3.78L55.13,11.02L55.83,12.26L55.8,11.1L55.8,3.78L56.46,3.78ZM73.68,10.68C73.42,11.467 72.967,12.077 72.32,12.51C71.667,12.943 70.89,13.16 69.99,13.16C69.15,13.16 68.41,12.967 67.77,12.58C67.137,12.193 66.647,11.64 66.3,10.92C65.96,10.2 65.79,9.36 65.79,8.4C65.79,7.44 65.96,6.6 66.3,5.88C66.647,5.16 67.137,4.607 67.77,4.22C68.41,3.833 69.143,3.64 69.97,3.64C71.817,3.64 73.013,4.4 73.56,5.92L72.87,6.24C72.657,5.587 72.313,5.097 71.84,4.77C71.367,4.443 70.757,4.28 70.01,4.28C69.323,4.28 68.717,4.447 68.19,4.78C67.663,5.113 67.253,5.59 66.96,6.21C66.673,6.83 66.53,7.56 66.53,8.4C66.53,9.24 66.673,9.97 66.96,10.59C67.24,11.21 67.64,11.687 68.16,12.02C68.68,12.353 69.29,12.52 69.99,12.52C70.737,12.52 71.37,12.337 71.89,11.97C72.41,11.603 72.773,11.087 72.98,10.42L73.68,10.68ZM83.44,12.38L89.28,12.38L89.28,13.02L82.74,13.02L82.74,3.78L89.05,3.78L89.05,4.42L83.44,4.42L83.44,7.99L87.88,7.99L87.88,8.65L83.44,8.65L83.44,12.38ZM112.6,3.78C114.073,3.78 115.21,4.17 116.01,4.95C116.81,5.73 117.21,6.857 117.21,8.33C117.21,9.843 116.81,11.003 116.01,11.81C115.21,12.617 114.073,13.02 112.6,13.02L109.69,13.02L109.69,3.78L112.6,3.78ZM112.66,12.38C113.893,12.38 114.837,12.03 115.49,11.33C116.15,10.637 116.48,9.637 116.48,8.33C116.48,7.077 116.15,6.113 115.49,5.44C114.837,4.76 113.893,4.42 112.66,4.42L110.39,4.42L110.39,12.38L112.66,12.38ZM127.25,12.38L133.08,12.38L133.08,13.02L126.55,13.02L126.55,3.78L132.86,3.78L132.86,4.42L127.25,4.42L127.25,7.99L131.68,7.99L131.68,8.65L127.25,8.65L127.25,12.38ZM158.07,6.54L156.21,13.02L155.34,13.02L152.46,3.78L153.22,3.78L155.78,12.45L158.2,3.78L159.01,3.78L161.43,12.46L164.02,3.78L164.74,3.78L161.85,13.02L160.99,13.02L159.12,6.54L158.61,4.54L158.59,4.54L158.07,6.54ZM174.31,12.38L180.15,12.38L180.15,13.02L173.61,13.02L173.61,3.78L179.93,3.78L179.93,4.42L174.31,4.42L174.31,7.99L178.75,7.99L178.75,8.65L174.31,8.65L174.31,12.38ZM189.18,13.02L189.18,3.78L192.44,3.78C193.453,3.78 194.21,3.99 194.71,4.41C195.203,4.83 195.45,5.437 195.45,6.23C195.45,6.77 195.303,7.227 195.01,7.6C194.717,7.973 194.3,8.217 193.76,8.33L193.76,8.34C194.36,8.433 194.833,8.677 195.18,9.07C195.533,9.463 195.71,9.95 195.71,10.53C195.71,11.323 195.427,11.937 194.86,12.37C194.293,12.803 193.487,13.02 192.44,13.02L189.18,13.02ZM189.88,8.04L192.46,8.04C193.96,8.04 194.71,7.437 194.71,6.23C194.71,5.023 193.96,4.42 192.46,4.42L189.88,4.42L189.88,8.04ZM189.88,12.38L192.58,12.38C193.367,12.38 193.96,12.22 194.36,11.9C194.76,11.58 194.96,11.123 194.96,10.53C194.96,9.923 194.76,9.463 194.36,9.15C193.96,8.837 193.367,8.68 192.58,8.68L189.88,8.68L189.88,12.38ZM219.32,3.78C220.8,3.78 221.937,4.17 222.73,4.95C223.53,5.73 223.93,6.857 223.93,8.33C223.93,9.843 223.53,11.003 222.73,11.81C221.937,12.617 220.8,13.02 219.32,13.02L216.41,13.02L216.41,3.78L219.32,3.78ZM219.38,12.38C220.613,12.38 221.56,12.03 222.22,11.33C222.873,10.637 223.2,9.637 223.2,8.33C223.2,7.077 222.873,6.113 222.22,5.44C221.56,4.76 220.613,4.42 219.38,4.42L217.11,4.42L217.11,12.38L219.38,12.38ZM233.97,12.38L239.81,12.38L239.81,13.02L233.27,13.02L233.27,3.78L239.58,3.78L239.58,4.42L233.97,4.42L233.97,7.99L238.41,7.99L238.41,8.65L233.97,8.65L233.97,12.38ZM251.69,3.64C253.43,3.64 254.593,4.32 255.18,5.68L254.58,6.17C254.347,5.51 253.997,5.03 253.53,4.73C253.07,4.43 252.463,4.28 251.71,4.28C251.163,4.28 250.69,4.367 250.29,4.54C249.89,4.707 249.587,4.933 249.38,5.22C249.167,5.513 249.06,5.84 249.06,6.2C249.06,6.553 249.15,6.847 249.33,7.08C249.503,7.313 249.803,7.513 250.23,7.68C250.657,7.84 251.243,7.987 251.99,8.12C253.19,8.327 254.043,8.627 254.55,9.02C255.05,9.407 255.3,9.947 255.3,10.64C255.3,11.133 255.157,11.573 254.87,11.96C254.583,12.34 254.177,12.633 253.65,12.84C253.117,13.053 252.51,13.16 251.83,13.16C250.863,13.16 250.047,12.967 249.38,12.58C248.707,12.193 248.25,11.65 248.01,10.95L248.63,10.47C248.817,11.137 249.19,11.643 249.75,11.99C250.317,12.343 251.017,12.52 251.85,12.52C252.65,12.52 253.303,12.357 253.81,12.03C254.323,11.703 254.58,11.253 254.58,10.68C254.58,10.187 254.37,9.797 253.95,9.51C253.537,9.217 252.817,8.983 251.79,8.81C250.923,8.657 250.237,8.473 249.73,8.26C249.23,8.047 248.87,7.78 248.65,7.46C248.43,7.147 248.32,6.75 248.32,6.27C248.32,5.797 248.457,5.36 248.73,4.96C249.003,4.553 249.397,4.233 249.91,4C250.417,3.76 251.01,3.64 251.69,3.64ZM265.2,3.78L265.2,13.02L264.5,13.02L264.5,3.78L265.2,3.78ZM278.67,8.5L282.46,8.5L282.46,13.02L281.9,13.02L281.88,11.41C281.627,11.97 281.23,12.403 280.69,12.71C280.157,13.01 279.493,13.16 278.7,13.16C277.86,13.16 277.123,12.967 276.49,12.58C275.863,12.193 275.38,11.64 275.04,10.92C274.7,10.2 274.53,9.36 274.53,8.4C274.53,7.44 274.703,6.6 275.05,5.88C275.403,5.16 275.897,4.607 276.53,4.22C277.163,3.833 277.9,3.64 278.74,3.64C279.68,3.64 280.45,3.827 281.05,4.2C281.65,4.573 282.097,5.143 282.39,5.91L281.75,6.24C281.537,5.6 281.177,5.113 280.67,4.78C280.157,4.447 279.513,4.28 278.74,4.28C278.047,4.28 277.44,4.447 276.92,4.78C276.4,5.113 275.993,5.59 275.7,6.21C275.413,6.83 275.27,7.56 275.27,8.4C275.27,9.68 275.577,10.687 276.19,11.42C276.797,12.153 277.643,12.52 278.73,12.52C279.397,12.52 279.963,12.387 280.43,12.12C280.897,11.853 281.243,11.503 281.47,11.07C281.697,10.637 281.81,10.17 281.81,9.67L281.81,9.16L278.67,9.16L278.67,8.5ZM299.04,3.78L299.04,13.02L298.17,13.02L293.27,5.77L292.59,4.54L292.57,4.54L292.61,5.7L292.61,13.02L291.94,13.02L291.94,3.78L292.82,3.78L297.71,11.02L298.41,12.26L298.38,11.1L298.38,3.78L299.04,3.78Z" style="fill-rule:nonzero;"/>
            </g>
        </g>
    </g>
</svg>
